# xmcd CD database file
#
# Track frame offsets:
#	150
#	18830
#	49750
#	61235
#	75979
#	97449
#	119871
#	138055
#	156266
#	173053
#	192992
#	215140
#
# Disc length: 3020 seconds
#
# Revision: 2
# Processed by: cddbd v1.5.2PL0 Copyright (c) Steve Scherf et al.
# Submitted via: CDex 1.79
#
DISCID=a80bca0c
DTITLE=Buckwheat Zydeco - The Best of Buckwheat Zydeco: 20th Century Masters
DYEAR=2006
DGENRE=R&B
TTITLE0=Hot Tamale Baby
TTITLE1=Ma 'Tit Fille
TTITLE2=On a Night Like This
TTITLE3=Zydeco Honky Tonk
TTITLE4=Why Does Love Got to Be So Bad?
TTITLE5=Drivin' Old Grey
TTITLE6=Make a Change
TTITLE7=Hey Good Lookin'
TTITLE8=Beast of Burden
TTITLE9=Where There's Smoke There's Fire
TTITLE10=Secret of Love
TTITLE11=Five Card Stud
EXTD=YEAR: 2006
EXTT0=
EXTT1=
EXTT2=
EXTT3=
EXTT4=
EXTT5=
EXTT6=
EXTT7=
EXTT8=
EXTT9=
EXTT10=
EXTT11=
PLAYORDER=
